<svg xmlns="http://www.w3.org/2000/svg" viewBox="0 0 675 160.61"><defs><style>.cls-1{font-size:64px;font-family:HindSiliguri-Light, Hind Siliguri;font-weight:300;letter-spacing:0.01em;}.cls-1,.cls-5{fill:#300e3f;}.cls-2{font-family:HindSiliguri-SemiBold, Hind Siliguri;font-weight:600;}.cls-3{fill:none;stroke:#d04c26;stroke-miterlimit:10;stroke-width:4px;}.cls-4{fill:#d04c26;}.cls-6{fill:#ff9c06;}</style></defs><g id="Layer_2" data-name="Layer 2"><g id="Layer_1-2" data-name="Layer 1"><text class="cls-1" transform="translate(171 117.25)">SUJAY<tspan class="cls-2" x="176.45" y="0">GANDHAM</tspan></text><line class="cls-3" x1="34.74" y1="105.84" x2="18.26" y2="97.61"/><circle class="cls-4" cx="45.71" cy="107.05" r="17.56"/><polygon class="cls-5" points="3.51 126.23 3.51 64.85 45.71 34.16 84.07 34.16 126.27 64.85 126.27 126.23 91.74 72.53 38.04 72.53 3.51 126.23 3.51 126.23"/><polygon class="cls-5" points="49.56 30.63 38.62 0 91.13 0 80.19 30.63 49.56 30.63"/><circle class="cls-6" cx="45.71" cy="107.05" r="11.51"/><circle cx="84.07" cy="107.05" r="11.51"/><circle class="cls-5" cx="84.07" cy="107.05" r="11.51"/><path class="cls-5" d="M69.06,135.6c0,13.68-23,24.76-51.44,24.76A101.76,101.76,0,0,1,0,158.87a130.71,130.71,0,0,0,18.64-3.53c22.91-6,41.09-17,47.72-27.69A13.77,13.77,0,0,1,69.06,135.6Z"/><path class="cls-5" d="M112.47,156.32a134.25,134.25,0,0,0,14.56,3.6,105.18,105.18,0,0,1-12.1.69c-28.41,0-51.44-11.09-51.44-24.77a13.87,13.87,0,0,1,2.89-8.21C73,138.3,90.4,149.57,112.47,156.32Z"/></g></g></svg>