<svg xmlns="http://www.w3.org/2000/svg" viewBox="0 0 662.71 160.61"><defs><style>.cls-1{fill:#300e3f;}.cls-2{fill:#d04c26;}.cls-3{fill:#ff9c06;}</style></defs><g id="Layer_2" data-name="Layer 2"><g id="Layer_1-2" data-name="Layer 1"><path class="cls-1" d="M200.57,106.11c0,3.76-1.26,6.62-3.78,8.61a15.17,15.17,0,0,1-9.66,3,21.52,21.52,0,0,1-11.33-2.82v-4.42a16.05,16.05,0,0,0,5,2.44,20.38,20.38,0,0,0,6.18.95,11.24,11.24,0,0,0,7.07-2,6.82,6.82,0,0,0,2.53-5.69,5.92,5.92,0,0,0-1.92-4.58,20.64,20.64,0,0,0-5.57-3.36c-.34-.17-1.09-.5-2.24-1s-2-.84-2.43-1.06-1.2-.57-2.18-1.09a11.79,11.79,0,0,1-2.14-1.34c-.45-.38-1-.9-1.7-1.54a6.48,6.48,0,0,1-1.47-1.92,15,15,0,0,1-.83-2.27,9.68,9.68,0,0,1-.39-2.78,10.11,10.11,0,0,1,3.91-8.48,15,15,0,0,1,9.53-3,18.8,18.8,0,0,1,9,1.92v4.41a14.67,14.67,0,0,0-4-1.73,18.24,18.24,0,0,0-4.86-.7,10.72,10.72,0,0,0-6.85,2A6.44,6.44,0,0,0,179.77,85a6.22,6.22,0,0,0,2.94,5.54,24.93,24.93,0,0,0,2.79,1.72c.79.41,2,1,3.61,1.64s2.63,1.14,3.39,1.5a27.08,27.08,0,0,1,2.95,1.7,11.67,11.67,0,0,1,2.72,2.27,11.43,11.43,0,0,1,1.66,2.88A9.92,9.92,0,0,1,200.57,106.11Z"/><path class="cls-1" d="M240.82,100.93c0,5.54-1.34,9.74-4,12.57s-6.48,4.26-11.39,4.26-8.57-1.39-11.23-4.16-4-6.83-4-12.16V74.11h4v27.27q0,6.47,3,9.5a11.07,11.07,0,0,0,8.22,3q11.46,0,11.46-12.86V74.11h4Z"/><path class="cls-1" d="M263.48,106.69q0,10.56-9.41,10.56a11.1,11.1,0,0,1-5.89-1.48v-4a9.61,9.61,0,0,0,5.51,1.73q5.82,0,5.82-6.14V74.11h4Z"/><path class="cls-1" d="M275.64,117.25h-4.29l15.23-43.14h5.76l14.91,43.14H303l-4.1-12H279.8ZM282,99.07l-1,2.69h16.71l-1-2.75-7.3-21.57Q288.64,80,282,99.07Z"/><path class="cls-1" d="M330.49,101.12v16.13h-4V101.12l-14.59-27h4.54l3.39,6.34,8.64,16.64q.51-1.22,8.77-16.64l3.39-6.34h4.55Z"/><path class="cls-1" d="M387.77,113.54q-5.89,4.21-14.73,4.22-10.23,0-16.54-6t-6.3-16.19q0-10,6.49-16.13t16.42-6.15a26.77,26.77,0,0,1,12.61,2.76v8.25a23.93,23.93,0,0,0-12.48-3.52,14,14,0,0,0-10.43,4q-4,4-4,10.76t3.87,10.78q3.87,3.93,10.66,3.93a18.57,18.57,0,0,0,6.46-1.15V99h-7.94V92.1h15.88v20.73h-.07Z"/><path class="cls-1" d="M402.36,117.25h-8.45L408.5,74.11h10.43l14.6,43.14h-8.71l-3.07-9.79H405.43ZM408.12,99l-.58,1.85H419.7l-.58-1.92q-2.17-6.91-3.55-11.61c-.91-3.14-1.48-5.11-1.69-5.92l-.26-1.28Q413.05,83.33,408.12,99Z"/><path class="cls-1" d="M448.12,117.25h-8.07V74.11h9.15l10.37,18q2.56,4.41,4.58,8.22t2.72,5.41l.7,1.6q-.51-5.31-.51-15.23v-18h8.13v43.14H466L455.48,99.33Q453,95.1,451,91.23t-2.78-5.6l-.77-1.79a138,138,0,0,1,.71,15.42Z"/><path class="cls-1" d="M498.48,117.25H484.4V74.11h14.08q9.67,0,15.81,6a20,20,0,0,1,6.15,15q0,9.93-6,16T498.48,117.25Zm-.25-36.35h-5.57v29.63h5.7q6.78,0,10.3-4.2t3.52-11.23a14.33,14.33,0,0,0-3.74-10.2Q504.69,80.9,498.23,80.9Z"/><path class="cls-1" d="M561.84,117.25h-8.12V99.14H536v18.11h-8.07V74.11H536v18h17.73v-18h8.12Z"/><path class="cls-1" d="M576.88,117.25h-8.45L583,74.11h10.43l14.59,43.14h-8.7l-3.08-9.79H580ZM582.64,99l-.57,1.85h12.16l-.58-1.92Q591.48,92,590.1,87.33c-.92-3.14-1.48-5.11-1.7-5.92l-.25-1.28Q587.57,83.33,582.64,99Z"/><path class="cls-1" d="M621.88,117.25h-8.07l3.46-43.14h9.21l5.89,15.68c1,2.65,2,5.28,2.88,7.91s1.54,4.57,1.92,5.85l.58,2q2-6.66,5.5-15.75l6-15.68h9.21l4.23,43.14h-8.07l-1.53-16.83L652,85.31q-2.31,6.6-5.51,15.11l-6,16.19h-5.5L629,100.42,624,85.5q0,3.14-.84,14.92Z"/><rect class="cls-2" x="24.5" y="92.52" width="4" height="18.41" transform="translate(-76.34 79.93) rotate(-63.43)"/><circle class="cls-2" cx="45.71" cy="107.05" r="17.56"/><polygon class="cls-1" points="3.51 126.23 3.51 64.85 45.71 34.16 84.07 34.16 126.27 64.85 126.27 126.23 91.74 72.53 38.04 72.53 3.51 126.23 3.51 126.23"/><polygon class="cls-1" points="49.56 30.63 38.62 0 91.13 0 80.19 30.63 49.56 30.63"/><circle class="cls-3" cx="45.71" cy="107.05" r="11.51"/><circle cx="84.07" cy="107.05" r="11.51"/><circle class="cls-1" cx="84.07" cy="107.05" r="11.51"/><path class="cls-1" d="M69.06,135.6c0,13.68-23,24.76-51.44,24.76A101.76,101.76,0,0,1,0,158.87a130.71,130.71,0,0,0,18.64-3.53c22.91-6,41.09-17,47.72-27.69A13.77,13.77,0,0,1,69.06,135.6Z"/><path class="cls-1" d="M112.47,156.32a134.25,134.25,0,0,0,14.56,3.6,105.18,105.18,0,0,1-12.1.69c-28.41,0-51.44-11.09-51.44-24.77a13.87,13.87,0,0,1,2.89-8.21C73,138.3,90.4,149.57,112.47,156.32Z"/></g></g></svg>