<svg width="1440" height="1024" viewBox="0 0 1440 1024" fill="#fcfcfc" xmlns="http://www.w3.org/2000/svg">
<path fill-rule="evenodd" clip-rule="evenodd" d="M1090 230C1119.27 230 1143 206.271 1143 177C1143 147.729 1119.27 124 1090 124C1060.73 124 1037 147.729 1037 177C1037 206.271 1060.73 230 1090 230Z" fill="#B65062"/>
<path fill-rule="evenodd" clip-rule="evenodd" d="M1090 138C1091.66 138 1093 136.657 1093 135C1093 133.343 1091.66 132 1090 132C1088.34 132 1087 133.343 1087 135C1087 136.657 1088.34 138 1090 138Z" fill="#29043E"/>
<path fill-rule="evenodd" clip-rule="evenodd" d="M1048 180C1049.66 180 1051 178.657 1051 177C1051 175.343 1049.66 174 1048 174C1046.34 174 1045 175.343 1045 177C1045 178.657 1046.34 180 1048 180Z" fill="#29043E"/>
<path fill-rule="evenodd" clip-rule="evenodd" d="M1132 180C1133.66 180 1135 178.657 1135 177C1135 175.343 1133.66 174 1132 174C1130.34 174 1129 175.343 1129 177C1129 178.657 1130.34 180 1132 180Z" fill="#29043E"/>
<path fill-rule="evenodd" clip-rule="evenodd" d="M1090 222C1091.66 222 1093 220.657 1093 219C1093 217.343 1091.66 216 1090 216C1088.34 216 1087 217.343 1087 219C1087 220.657 1088.34 222 1090 222Z" fill="#29043E"/>
<path fill-rule="evenodd" clip-rule="evenodd" d="M1090 141L1092 176H1088L1090 141Z" fill="#FFA235"/>
<path fill-rule="evenodd" clip-rule="evenodd" d="M1107.7 194.698L1089.31 179.142L1092.14 176.314L1107.7 194.698Z" fill="#FFA235"/>
<path fill-rule="evenodd" clip-rule="evenodd" d="M1090 181C1092.21 181 1094 179.209 1094 177C1094 174.791 1092.21 173 1090 173C1087.79 173 1086 174.791 1086 177C1086 179.209 1087.79 181 1090 181Z" fill="#FFA235"/>
<g opacity="0.345889">
<g clip-path="url(#clip0)">
<path fill-rule="evenodd" clip-rule="evenodd" d="M1084.1 464.147C1075.72 378.26 626.009 212.49 542.522 293.84C459.035 375.19 539.297 527.863 714.255 566.959C889.213 606.054 1092.48 550.033 1084.1 464.147Z" fill="#FFA235" fill-opacity="0.2"/>
<path fill-rule="evenodd" clip-rule="evenodd" d="M753.528 520.952C761.156 447.988 1170.41 307.16 1246.38 376.27C1322.36 445.38 1303.13 590.745 1143.91 623.958C984.693 657.172 745.901 593.916 753.528 520.952Z" fill="#5C3771" fill-opacity="0.2"/>
</g>
</g>
<path fill-rule="evenodd" clip-rule="evenodd" d="M1248.06 411.244C1241.59 415.147 1235.23 417.033 1232.24 416.263C1224.75 414.333 1224.06 386.935 1229.86 376.134C1235.65 365.333 1265.44 360.625 1266.94 382.025C1267.46 389.453 1264.35 396.081 1259.74 401.49L1268 440H1244L1248.06 411.244Z" fill="#E67D03"/>
<path fill-rule="evenodd" clip-rule="evenodd" d="M1239.34 364.37C1242.62 363.37 1247.38 363.031 1249.38 363.26C1248.24 360.531 1247.79 357.49 1248.16 354.529C1248.51 351.652 1249.8 349.202 1250.99 346.635C1251.54 345.452 1252.16 344.275 1253.08 343.37C1254.03 342.448 1255.22 341.84 1256.47 341.549C1257.76 341.252 1259.1 341.277 1260.38 341.547C1260.95 341.666 1261.46 341.925 1262.01 342.07C1262.58 342.218 1262.86 341.861 1263.27 341.502C1264.27 340.638 1265.73 340.211 1266.99 340.059C1268.41 339.887 1269.88 340.101 1271.23 340.566C1272.54 341.019 1273.81 341.755 1274.76 342.827C1275.18 343.304 1275.56 343.847 1275.81 344.446C1275.91 344.692 1275.93 344.838 1276.18 344.928C1276.4 345.012 1276.67 345.014 1276.9 345.094C1279.17 345.861 1281.11 347.612 1282.16 349.86C1282.78 351.171 1283.07 353.48 1282.99 356.068C1282.91 358.656 1280.57 365.408 1278.39 367.871C1276.44 370.07 1273.57 371.52 1270.8 372.155C1272.64 374.255 1273.86 376.878 1274.76 379.547C1275.75 382.445 1276.35 385.457 1276.58 388.525C1276.79 391.44 1276.81 394.524 1276.13 397.377C1275.49 400.045 1274.12 402.234 1271.84 403.622C1270.79 404.258 1269.67 404.736 1268.54 405.173C1267.42 405.603 1266.3 406.022 1265.14 406.263C1262.93 406.72 1260.38 406.642 1258.68 404.882C1258.06 404.248 1257.39 403.451 1256.94 402.676C1256.78 402.397 1256.68 402.215 1256.88 401.943C1257.11 401.616 1257.49 401.366 1257.79 401.111C1259.51 399.656 1260.57 397.713 1260.84 395.405C1261.11 393.063 1260.48 390.039 1258.2 389.017C1255.39 387.755 1252.3 389.204 1249.8 390.554C1248.74 386.806 1246.56 383.431 1243.14 381.712C1239.35 379.811 1235.02 379.588 1231.13 377.956C1230.12 377.531 1229.08 377.048 1228.34 376.182C1228.03 375.82 1227.66 375.35 1227.54 374.871C1227.37 374.242 1227.78 373.715 1228.09 373.224C1229.76 370.624 1236.06 365.37 1239.34 364.37Z" fill="#191847"/>
<path d="M726 577.5L726 503L732.5 503L732.5 577.5L726 577.5Z" fill="#CC6F02"/>
<rect x="711" y="575" width="38" height="9" rx="2" fill="#A4243B"/>
<path fill-rule="evenodd" clip-rule="evenodd" d="M694.622 432.679C694.622 432.679 711.811 431 729 431C746.189 431 763.378 432.679 763.378 432.679L768 512.133C768 512.133 748.5 514 729 514C709.5 514 690 512.133 690 512.133L694.622 432.679Z" fill="#B1A2BA"/>
<path fill-rule="evenodd" clip-rule="evenodd" d="M667 688V606V584H688H771H792V606V688H771V606H688V688H667Z" fill="#33054D"/>
<path fill-rule="evenodd" clip-rule="evenodd" d="M1064.97 460.617C1066.72 461.88 1067.7 463.728 1068.88 465.551C1070.35 467.817 1072.08 469.863 1073.55 472.131C1076.62 476.86 1079.31 481.879 1082.1 486.799C1087.41 496.137 1091.43 506.091 1093.43 516.895C1095.49 528.092 1096.05 539.648 1096.92 551.012C1097.84 563.056 1098.77 575.188 1098.89 587.279C1098.94 592.696 1099.23 598.446 1098.58 603.825C1098.18 607.173 1096.67 610.027 1093.26 610C1086.02 609.942 1082.63 601.927 1081.21 595.354C1079.12 585.674 1078.7 575.393 1079.03 565.494C1079.43 553.558 1081.5 541.802 1082.4 529.912C1083.35 517.325 1082.81 504.96 1078.49 493.109C1076.3 487.12 1073.76 481.274 1071.48 475.325C1070.51 472.792 1069.72 470.19 1068.41 467.831C1066.95 465.208 1065.14 462.826 1064 460C1064.32 460.206 1064.65 460.411 1064.97 460.617Z" fill="#55B1A5"/>
<path fill-rule="evenodd" clip-rule="evenodd" d="M1067.21 495.302C1068.17 493.695 1070.27 498.993 1070.59 499.66C1070.46 499.328 1070.32 498.997 1070.18 498.667C1072.08 501.825 1073.82 505.113 1074.9 508.734C1075.97 512.319 1076.89 515.977 1077.89 519.587C1079.77 526.361 1082.2 532.943 1083.91 539.778C1085.57 546.438 1085.99 552.986 1085.59 559.875C1085.17 567.035 1084.91 574.306 1085.4 581.462C1085.63 584.88 1086.74 588.064 1087.5 591.354C1088.27 594.648 1088.87 597.986 1089.77 601.239C1089.97 600.815 1090 602.232 1090 602.339C1089.99 603.152 1089.88 603.833 1089.62 604.604C1088.95 606.586 1087.69 608.269 1085.78 608.816C1082.32 609.803 1079.11 606.659 1078 603.339C1076.4 598.575 1075.52 593.311 1074.76 588.304C1074.06 583.713 1073.89 579.094 1074.1 574.44C1074.51 565.261 1076.17 556.202 1076.62 547.026C1077.11 537.036 1075.13 527.649 1073.47 517.925C1072.67 513.239 1071.91 508.598 1070.36 504.134C1069.73 502.326 1068.91 500.731 1068.05 499.061C1067.56 498.112 1066.57 496.418 1067.21 495.302Z" fill="#3FA79A"/>
<path fill-rule="evenodd" clip-rule="evenodd" d="M1095.25 479.697C1094.86 491.142 1094.17 502.5 1092.65 513.824C1091.09 525.38 1089.3 536.897 1087.8 548.463C1086.34 559.722 1084.81 571.168 1085.02 582.585C1085.17 590.993 1083.77 605.219 1093.11 609.369C1102.57 613.572 1104.6 595.623 1105.22 589.699C1106.41 578.333 1106.03 566.847 1105.45 555.419C1104.86 543.689 1103.87 532.02 1102.64 520.334C1101.28 507.353 1100.21 494.314 1099.35 481.296C1098.92 474.857 1098.82 468.429 1098.94 461.988C1099.05 455.911 1098.82 449.77 1096.66 444C1096.54 444.082 1096.43 444.164 1096.32 444.246" fill="#2A9D8F"/>
<path fill-rule="evenodd" clip-rule="evenodd" d="M1144.08 515.955C1142.38 518.433 1140.67 520.887 1139.06 523.512C1136.19 528.209 1133.59 533.432 1132.8 540.147C1131.17 554.2 1132.48 569.379 1132.8 583.863C1132.86 586.822 1132.49 589.693 1133.66 592.51C1134.71 595.064 1136.69 597.01 1138.58 597C1142.61 596.977 1142 587.095 1142 582.746C1142.01 575.123 1141.16 567.422 1141.23 559.806C1141.31 552.26 1141.77 544.694 1142.86 537.528C1143.97 530.275 1145.59 523.309 1147.73 516.81C1148.03 515.908 1150.16 508.937 1148.14 510.139" fill="#55B1A5"/>
<path fill-rule="evenodd" clip-rule="evenodd" d="M1126.26 441C1123.61 441 1123.63 454.226 1123.55 455.925C1123.26 462.055 1123.33 468.188 1123.14 474.319C1122.74 487.701 1122.25 501.2 1120.24 514.426C1119.16 521.547 1117.91 528.636 1116.56 535.702C1115.2 542.789 1113.39 549.867 1112.5 557.044C1111.64 563.943 1112.12 570.977 1112.24 577.91C1112.36 584.885 1112.57 591.874 1113.48 598.788C1113.71 600.494 1113.97 602.195 1114.26 603.891C1114.49 605.305 1114.35 607.058 1114.75 608.401C1115.39 610.552 1118.13 611.256 1119.98 610.92C1124.97 610.009 1128.16 603.74 1129.87 599.16C1132.04 593.311 1133.2 586.967 1134.34 580.804C1135.63 573.821 1136.39 566.732 1136.74 559.623C1137.47 545.175 1136.54 530.712 1135.5 516.31C1134.93 508.301 1134.26 500.327 1133.25 492.367C1132.23 484.441 1130.93 476.55 1130.09 468.601C1129.47 462.825 1128.86 457.04 1128.47 451.241C1128.37 449.859 1128.29 441 1126.26 441" fill="#2A9D8F"/>
<path fill-rule="evenodd" clip-rule="evenodd" d="M1122.94 547.139C1122.51 533.253 1116.93 472.259 1115.66 455.467C1115.34 451.264 1112.28 433.765 1111.88 429C1110.81 430.347 1110.9 451.309 1110.91 456.126C1110.93 460.891 1110.33 465.576 1110.03 470.315C1109.72 475.151 1102.57 537.601 1101.64 542.247C1099.8 551.491 1098.56 560.976 1097.61 570.428C1096.68 579.639 1095.24 589.358 1096.48 598.618C1096.77 600.75 1097.22 602.848 1097.95 604.806C1098.75 606.922 1099.29 608.879 1099.93 611.093C1100.96 614.659 1102.81 617.789 1105.67 619.262C1111.52 622.281 1114.66 615.447 1116.25 609.497C1118.79 599.995 1120.43 590.338 1121.19 580.359C1122.04 569.318 1123.29 558.255 1122.94 547.139" fill="#55B1A5"/>
<rect x="1061" y="565" width="91" height="91" rx="2" fill="#29043E"/>
<rect x="1051" y="575" width="10" height="113" rx="2" fill="#CC5803"/>
<rect x="1101" y="575" width="10" height="113" rx="2" fill="#CC5803"/>
<rect x="1152" y="575" width="10" height="113" rx="2" fill="#CC5803"/>
<path fill-rule="evenodd" clip-rule="evenodd" d="M553.445 807.624C594.588 818.38 636.265 795.263 646.532 755.99C656.799 716.717 631.769 676.16 590.626 665.404C549.483 654.647 507.807 677.765 497.539 717.038C487.272 756.311 512.302 796.868 553.445 807.624Z" fill="#A4243B"/>
<path fill-rule="evenodd" clip-rule="evenodd" d="M634.284 534.953C626.863 536.402 620.24 535.994 617.697 534.247C611.323 529.868 620.062 503.892 629.206 495.73C638.351 487.568 667.951 493.35 662.03 513.97C659.975 521.127 654.775 526.286 648.593 529.788L643.162 568.799L620.614 560.576L634.284 534.953Z" fill="#D67935"/>
<path fill-rule="evenodd" clip-rule="evenodd" d="M674.301 510.862C675.292 510.406 676.065 509.521 676.766 508.668C677.493 507.782 678.214 506.882 678.837 505.911C680.081 503.97 680.971 501.542 680.062 499.351C679.333 497.595 677.734 496.343 676.107 495.604C675.023 495.112 673.82 494.85 672.623 494.812C671.435 494.774 670.267 495.135 669.081 495.192C669.872 492.9 670.351 490.375 669.905 488.01C669.475 485.733 668.086 484.037 666.169 483.023C664.201 481.983 661.978 481.722 659.758 482.048C659.202 482.13 658.646 482.226 658.097 482.363C657.637 482.478 657.144 482.639 656.675 482.582C656.151 482.52 656.014 482.154 655.829 481.688C655.612 481.141 655.33 480.627 655.01 480.145C653.592 478.015 651.264 476.503 648.709 476.538C647.531 476.554 646.283 476.856 645.246 477.52C644.321 478.112 643.401 479.251 642.329 479.507C641.875 479.617 641.733 479.201 641.486 478.842C641.116 478.302 640.782 477.734 640.401 477.202C639.867 476.455 639.229 475.809 638.473 475.317C637.367 474.596 635.673 474.053 634.75 475.51C634.404 476.057 634.271 476.729 634.095 477.343C633.852 478.187 633.612 479.031 633.384 479.878C633.211 480.522 633.06 481.149 632.954 481.805C632.898 482.154 632.873 482.834 632.613 483.11C632.29 483.455 631.567 482.928 631.217 482.817C630.525 482.596 629.797 482.466 629.061 482.528C628.491 482.575 627.856 482.72 627.446 483.204C627.194 483.502 627.099 483.867 627.03 484.243C626.947 484.693 626.783 484.888 626.573 485.297C625.822 484.513 623.016 482.355 622.019 483.85C621.687 484.347 621.765 485.075 621.828 485.619C621.938 486.575 622.199 487.506 622.485 488.408C623.081 490.29 623.97 492.049 625.029 493.663C623.05 493.799 621.791 495.87 622.78 497.738C623.217 498.563 624.045 499.013 624.88 499.275C625.185 499.371 625.661 499.413 625.878 499.552C625.995 499.626 626.092 499.784 626.264 499.86C627.394 500.362 628.804 500.56 630.031 500.716C632.217 500.994 634.477 500.734 636.569 499.847C637.105 499.619 637.515 499.525 638.051 499.727C638.522 499.904 638.938 500.202 639.405 500.386C640.642 500.873 641.99 500.673 643.297 500.69C642.797 502.282 642.614 504.169 642.741 505.812C642.845 507.151 643.875 507.716 644.91 508.207C648.22 509.78 651.791 510.674 655.221 511.93C651.625 511.47 648.079 510.527 644.464 510.21C642.83 510.067 643.601 511.485 643.984 512.412C644.614 513.94 644.876 515.643 644.871 517.334C647.269 515.809 650.651 515.46 652.958 517.039C655.508 518.784 656.102 523.308 653.307 525.387C651.684 526.593 649.575 526.518 647.758 526.628C648.518 528.347 648.128 530.334 648.288 532.185C648.366 533.098 648.554 534.167 649.268 534.735C649.532 534.945 649.881 535.082 650.029 535.414C650.212 535.824 650.158 536.189 650.438 536.587C651.555 538.173 653.923 538.946 655.745 538.071C657.392 537.281 657.789 535.223 657.241 533.613C659.079 533.529 662.296 533.734 662.569 531.018C666.109 532.049 676.544 529.503 673.399 523.716C676.47 523.205 680.091 520.542 679.586 516.846C679.197 514 676.658 511.865 674.301 510.862" fill="#191847"/>
<path fill-rule="evenodd" clip-rule="evenodd" d="M489.285 701.024C490.78 722.081 487.407 770.644 487.407 770.644L474.778 771.901C474.778 771.901 464.369 715.764 459.228 678.109C457.412 685.502 455.283 693.794 452.948 702.475C447.415 723.04 429.977 765.472 424.507 777.571C421.069 785.175 411.59 779.863 412.91 773.319C413.134 772.211 413.829 768.287 414.866 762.433C419.952 733.725 433.263 658.593 439.545 641.299C442.073 634.34 457.241 632.792 463.15 640.457C470.592 636.445 481.828 636.665 483.99 648.564C485.364 656.128 487.577 676.986 489.285 701.024Z" fill="#D67935"/>
<path fill-rule="evenodd" clip-rule="evenodd" d="M493.898 754.293L490.605 648.771C487.235 630.571 455.898 639.568 455.742 649.354C455.388 671.571 466.882 748.105 466.776 754.724L493.898 754.293Z" fill="#29043E"/>
<path fill-rule="evenodd" clip-rule="evenodd" d="M489.204 764.919C490.191 764.225 491.534 764.45 492.091 765.479C493.123 767.386 494.565 770.283 494.83 772.022C495.252 774.785 495.171 780.265 495.171 780.265C492.074 780.883 439.499 791.382 439.499 791.382C439.499 791.382 436.196 784.39 440.781 782.864C445.367 781.338 448.386 780.244 448.386 780.244L472.434 763.142C472.907 762.805 473.545 762.927 473.833 763.409L476.139 767.262C476.139 767.262 480.786 768.488 483.492 767.947C485.134 767.619 487.554 766.08 489.204 764.919Z" fill="#E4E4E4"/>
<path fill-rule="evenodd" clip-rule="evenodd" d="M427.744 771.605C428.942 771.506 430.012 772.419 429.99 773.622C429.949 775.844 429.781 779.135 429.173 780.803C428.203 783.463 425.502 788.259 425.502 788.259C422.575 787.192 372.893 769.075 372.893 769.075C372.893 769.075 373.449 761.18 378.075 762.221C382.701 763.263 385.791 763.869 385.791 763.869L414.395 761.297C414.971 761.245 415.471 761.691 415.484 762.27L415.59 766.862C415.59 766.862 418.947 770.366 421.504 771.298C423.039 771.858 425.789 771.767 427.744 771.605Z" fill="#E4E4E4"/>
<path fill-rule="evenodd" clip-rule="evenodd" d="M435.707 647.631C426.18 673.755 415.727 738.984 413.637 744.739L438.95 753.992C438.95 753.992 463.132 670.404 465.069 670.115C467.006 669.826 528.859 701.087 548.25 708.158C576.213 718.355 594.559 703.983 608.055 669.889L552.663 649.69C540.921 646.849 477.531 637.906 454.115 634.24C444.09 632.67 438.331 640.434 435.707 647.631Z" fill="#5C3771"/>
<path fill-rule="evenodd" clip-rule="evenodd" d="M504.053 635.053L542.045 623.975L542.698 642.766L508.535 644.251C496.547 651.049 490.355 653.448 489.959 651.446C489.626 649.759 490.752 648.704 491.79 647.732C492.598 646.975 493.352 646.269 493.32 645.353C493.248 643.262 487.54 641.398 482.048 639.861C476.556 638.324 478.979 636.514 480.696 635.81C487.339 634.534 495.125 634.282 504.053 635.053ZM647.072 731.137C646.355 724.548 656.83 666.692 656.83 666.692L637.169 659.61C637.169 659.61 633.948 724.94 634.087 729.06C634.269 734.413 628.599 740.025 624.754 743.831C624.159 744.42 623.608 744.965 623.129 745.46C625.647 747.904 627.686 746.803 629.835 745.643C632.263 744.333 634.832 742.947 638.392 746.504C639.767 747.879 641.002 749.362 642.209 750.81C646.377 755.813 650.206 760.41 658.303 758.741C659.587 758.477 661.623 756.461 659.542 753.547C654.358 746.286 647.422 734.358 647.072 731.137Z" fill="#D67935"/>
<path fill-rule="evenodd" clip-rule="evenodd" d="M631.078 563.965L623.462 559.609C583.825 574.656 553.204 620.164 506.594 633.19L511.468 647.456C578.457 662.893 616.593 607.67 631.078 563.965Z" fill="#CC6F02"/>
<path fill-rule="evenodd" clip-rule="evenodd" d="M629.263 678.971C629.263 678.971 580.403 661.154 557.382 652.759C554.097 651.561 556.446 647.044 557.793 644.824C573.345 619.201 605.594 597.227 619.932 557.909L641.851 562.218C648.943 596.054 642.491 632.175 629.263 678.971Z" fill="#DDE3E9"/>
<path fill-rule="evenodd" clip-rule="evenodd" d="M630.151 701.647C630.553 710.584 631.252 718.51 632.341 724.798L647.757 730.42C668.971 677.398 663.715 628.73 655.796 597.653C659.667 598.759 663.648 598.422 667.217 595.323C679.782 584.412 679.79 575.885 672.594 570.457C668.637 567.472 664.109 566.874 658.69 566.157C654.256 565.571 649.224 564.906 643.418 562.79C643.416 562.789 643.414 562.788 643.413 562.788C642.85 562.582 642.324 562.433 641.833 562.336L634.81 560.22C634.81 560.22 572.353 644.706 573.336 680.929L630.151 701.647Z" fill="#FF971C"/>
<path fill-rule="evenodd" clip-rule="evenodd" d="M630.151 701.648C629.625 689.922 629.611 676.454 629.903 662.658C623.418 675.604 615.876 688.231 608.916 693.904L630.151 701.648Z" fill="black" fill-opacity="0.1"/>
<path fill-rule="evenodd" clip-rule="evenodd" d="M967.175 707.278L925.307 831.78L903.466 938.127L889.181 937.643L916.313 705.556L967.175 707.278Z" fill="#E67D03"/>
<path fill-rule="evenodd" clip-rule="evenodd" d="M980.629 707.733C975.737 776.704 977.537 812.427 977.896 818.721C978.255 825.014 984.707 865.962 1000.64 943.526L985.595 937.663C958.693 866.109 949.954 829.098 946.908 819.719C943.862 810.339 936.215 772.371 923.966 705.815L980.629 707.733Z" fill="#FF8B03"/>
<path fill-rule="evenodd" clip-rule="evenodd" d="M997.947 936.871C999.043 936.422 1000.32 936.949 1000.68 938.079C1001.33 940.156 1002.21 943.271 1002.15 945.007C1002.06 947.773 1000.98 953.048 1000.98 953.048C997.84 952.941 944.606 951.139 944.606 951.139C944.606 951.139 942.661 943.634 947.415 943.201C952.169 942.769 955.316 942.398 955.316 942.398L981.909 931.342C982.435 931.123 983.037 931.388 983.232 931.923L984.776 936.162C984.776 936.162 989.088 938.402 991.828 938.495C993.488 938.551 996.125 937.617 997.947 936.871Z" fill="#E4E4E4"/>
<path fill-rule="evenodd" clip-rule="evenodd" d="M904.001 933.69C905.097 933.241 906.372 933.768 906.73 934.898C907.389 936.975 908.263 940.09 908.204 941.826C908.11 944.592 907.03 949.867 907.03 949.867C903.894 949.76 850.66 947.958 850.66 947.958C850.66 947.958 848.715 940.453 853.469 940.02C858.223 939.588 861.37 939.217 861.37 939.217L887.963 928.161C888.489 927.942 889.091 928.207 889.286 928.742L890.83 932.981C890.83 932.981 895.142 935.221 897.882 935.314C899.542 935.37 902.179 934.436 904.001 933.69Z" fill="#E4E4E4"/>
<path fill-rule="evenodd" clip-rule="evenodd" d="M972.172 707.447L954.011 770.987L905.169 769.333L914.622 705.498L972.172 707.447Z" fill="#2A9D8F"/>
<path fill-rule="evenodd" clip-rule="evenodd" d="M981.167 707.752C988.24 732.219 981.995 771.934 981.995 771.934L932.154 770.247L920.618 705.701L981.167 707.752Z" fill="#55B1A5"/>
<path fill-rule="evenodd" clip-rule="evenodd" d="M967.825 582.767C960.266 582.605 953.881 580.798 951.768 578.551C946.47 572.917 960.531 549.393 971.201 543.361C981.872 537.329 1009.57 549.271 999.398 568.161C995.869 574.717 989.69 578.653 982.905 580.762L969.306 617.726L949.021 604.899L967.825 582.767Z" fill="#FFA235"/>
<path fill-rule="evenodd" clip-rule="evenodd" d="M966.694 546.249C967.644 545.192 968.966 544.189 970.07 543.32C971.493 542.2 973.089 541.387 974.715 540.699C977.777 539.403 981.017 538.533 984.233 538.144C990.106 537.433 996.192 538.729 1000.67 542.389C1002.93 544.236 1004.72 546.674 1005.76 549.509C1006.7 552.07 1007.15 555.25 1009.42 556.895C1011.89 558.686 1015.69 557.905 1018.65 557.807C1021.98 557.697 1025.18 558.111 1028.19 559.384C1033.23 561.517 1036.54 565.767 1037.31 571.496C1038.14 577.593 1036.88 584.97 1031.35 588.857C1030.32 589.579 1029.27 590.074 1028.08 590.282C1026.99 590.474 1025.51 590.474 1024.6 591.301C1023.63 592.18 1023.65 594.119 1023.38 595.301C1023 596.993 1022.49 598.697 1021.4 600.106C1019.61 602.419 1016.57 603.791 1013.91 604.377C1011.21 604.972 1008.56 604.622 1006.1 603.675C1004.46 603.043 1002.87 602.26 1001.45 601.213C1000.75 600.693 1000.23 600.077 999.618 599.463C999.024 598.866 998.519 598.805 997.69 598.813C993.837 598.852 990.463 597.677 987.471 595.417C984.946 593.509 982.283 590.92 981.263 587.719C980.131 584.164 981.948 581.398 984.406 578.769C983.615 578.686 981.833 577.818 983.58 577.258C984.272 577.036 985.138 577.316 985.819 577.359C986.612 577.409 987.474 577.37 988.264 577.133C991.454 576.176 992.323 570.673 990.452 568.493C987.673 565.254 983.816 569.643 980.556 569.348C978.682 569.178 977.828 567.25 977.408 565.567C976.845 563.312 977.013 560.903 977.333 558.546C977.597 556.605 977.921 554.673 978.167 552.731C978.282 551.824 978.398 549.129 979.468 548.698C977.309 546.644 973.909 545.93 970.93 545.931C969.699 545.932 968.64 546.121 967.55 546.807C967.317 546.954 966.702 547.442 966.411 547.294C965.87 547.018 966.456 546.514 966.694 546.249" fill="#191847"/>
<path fill-rule="evenodd" clip-rule="evenodd" d="M852.43 701.319L884.395 677.986L891.397 695.437L859.772 708.446C850.809 718.915 845.801 723.275 844.749 721.528C843.862 720.054 844.562 718.679 845.208 717.413C845.711 716.426 846.18 715.505 845.839 714.655C845.06 712.713 839.058 712.9 833.371 713.321C827.683 713.743 829.347 711.217 830.722 709.972C836.536 706.514 843.772 703.629 852.43 701.319ZM1012.01 764.769C1009.96 758.468 1008.3 699.695 1008.3 699.695L987.607 696.809C987.607 696.809 997.895 761.405 998.88 765.408C1000.16 770.609 995.764 777.268 992.785 781.783C992.324 782.482 991.897 783.129 991.53 783.712C994.497 785.585 996.265 784.089 998.13 782.511C1000.24 780.729 1002.47 778.844 1006.68 781.594C1008.31 782.656 1009.82 783.852 1011.3 785.022C1016.41 789.06 1021.1 792.77 1028.68 789.472C1029.89 788.949 1031.46 786.557 1028.83 784.134C1022.26 778.095 1013.02 767.849 1012.01 764.769Z" fill="#FF971C"/>
<path fill-rule="evenodd" clip-rule="evenodd" d="M961.968 604.464L953.619 601.768C933.602 636.468 903.076 666.228 862.04 691.047L884.953 728.738C927.814 691.166 956.785 650.214 961.968 604.464Z" fill="#33054D"/>
<path fill-rule="evenodd" clip-rule="evenodd" d="M983.853 717.383L907.633 706.451C907.633 706.451 943.358 645.847 949.814 600.83L973.298 600.702C987.199 632.355 987.17 668.867 983.853 717.383Z" fill="#AD3A4F"/>
<path fill-rule="evenodd" clip-rule="evenodd" d="M1013.81 755.018C1018.97 659.78 973.803 600.775 973.803 600.775L973.782 600.788C973.78 600.783 973.778 600.777 973.775 600.771L972.274 600.556C969.567 600.262 964.021 599.713 964.021 599.713L956.188 614.793C951.142 643.703 929.107 730.348 929.107 730.348L978.998 737.503C978.334 741.526 977.56 745.59 976.663 749.689L1013.81 755.018Z" fill="#2F3676"/>
<path fill-rule="evenodd" clip-rule="evenodd" d="M978.933 737.892C981.852 720.379 982.659 703.658 982.2 688.356C978.299 705.876 972.399 726.785 965.034 735.899L978.933 737.892Z" fill="black" fill-opacity="0.1"/>
<path fill-rule="evenodd" clip-rule="evenodd" d="M972.295 705.623L949.301 690.636L947.658 702.089L972.295 705.623Z" fill="white" fill-opacity="0.2"/>
<path fill-rule="evenodd" clip-rule="evenodd" d="M1273.08 543L1240.81 656.386L1217.27 739.958H1200.1L1225.12 543H1273.08Z" fill="#33054D"/>
<path fill-rule="evenodd" clip-rule="evenodd" d="M1281.71 543C1282.46 601.441 1285 633.316 1285.78 638.625C1286.57 643.935 1298.42 677.713 1321.33 739.958H1303.54C1274.37 680.244 1258.09 646.466 1254.69 638.625C1251.29 630.784 1240.81 598.909 1225.02 543H1281.71Z" fill="#5C3771"/>
<path fill-rule="evenodd" clip-rule="evenodd" d="M1322.92 756L1322.03 737.285L1303.34 737.285C1290.05 746.642 1268.63 752.435 1268.63 752.435V756H1302.45L1314.02 754.218V756H1322.92Z" fill="#191847"/>
<path fill-rule="evenodd" clip-rule="evenodd" d="M1219.68 756L1218.79 737.285L1200.1 737.285C1186.81 746.642 1165.39 752.435 1165.39 752.435V756H1199.21L1210.78 754.218V756H1219.68Z" fill="#191847"/>
<path fill-rule="evenodd" clip-rule="evenodd" d="M1129.88 394.352L1163.38 413.871L1150.77 427.114L1126.53 403.798C1113.66 399.885 1107.79 397.107 1108.91 395.464C1109.86 394.08 1111.35 394.164 1112.73 394.242C1113.81 394.303 1114.81 394.36 1115.43 393.715C1116.83 392.241 1114.25 386.91 1111.59 381.954C1108.92 376.998 1111.83 377.494 1113.48 378.237C1118.88 382.1 1124.35 387.472 1129.88 394.352ZM1351.78 570.359C1348.05 564.879 1326.48 506.611 1326.48 506.611L1308.77 509.183C1308.77 509.183 1337.29 571.058 1339.35 574.629C1342.02 579.268 1339.65 586.887 1338.05 592.053C1337.8 592.852 1337.57 593.593 1337.38 594.255C1340.75 595.228 1342.03 593.299 1343.39 591.264C1344.91 588.967 1346.53 586.536 1351.34 588.003C1353.2 588.57 1354.99 589.298 1356.74 590.009C1362.77 592.466 1368.31 594.724 1374.67 589.445C1375.68 588.609 1376.53 585.872 1373.32 584.278C1365.33 580.306 1353.61 573.038 1351.78 570.359Z" fill="#E67D03"/>
<path fill-rule="evenodd" clip-rule="evenodd" d="M1269.41 470.652L1262.07 438.187C1226.28 437.038 1189.28 429.376 1152.42 407.497L1141.93 420.035C1168.02 441.556 1200.6 458.139 1229.64 463.949C1256.45 469.311 1259.8 474.471 1269.41 470.652Z" fill="#A4243B"/>
<path fill-rule="evenodd" clip-rule="evenodd" d="M1294 545C1294 545 1246.84 550 1219.76 545C1217.53 544.587 1217.17 540.842 1218.21 538.301C1234.36 498.724 1245.44 464.192 1245.44 436.703C1249.89 438.944 1261 437.374 1261 437.374C1280.91 465.703 1290.07 498.206 1294 545Z" fill="#29043E"/>
<path fill-rule="evenodd" clip-rule="evenodd" d="M1266.71 437C1266.19 436.654 1265.92 436.481 1265.92 436.481L1265.95 437H1257.65C1257.23 439.453 1256.62 448.543 1255.73 461.798C1252.5 509.965 1245.56 613.127 1230.81 652.606H1332.61C1330.47 607.722 1313.92 554.047 1296.78 508.47C1309.43 521.056 1324.2 542.153 1336.14 577.273L1355.21 572.378C1335.77 488.638 1278.84 445.452 1267.79 437.744C1267.68 437.495 1267.58 437.247 1267.47 437H1266.71Z" fill="#AD3A4F"/>
<defs>
<clipPath id="clip0">
<rect x="509.35" y="271.988" width="779.7" height="360.05" fill="white"/>
</clipPath>
</defs>
</svg>
